<?xml version="1.0" encoding="UTF-8"?>
<svg id="Camada_2" data-name="Camada 2" xmlns="http://www.w3.org/2000/svg" viewBox="0 0 575.98 43.58">
  <defs>
    <style>
      .cls-1 {
        fill: #df975e;
      }
    </style>
  </defs>
  <g id="Camada_1-2" data-name="Camada 1">
    <path class="cls-1" d="M12.03,43.58c-1.16,0-2.34-.17-3.52-.51C3.43,41.58,0,36.92,0,31.7V11.88C0,6.64,3.46,1.97,8.57.5c5.11-1.47,10.3.39,13.25,4.77l5.31,7.88c1.28,1.89,4.1,1.89,5.38,0l1.21-1.79c2.3-3.41,6.22-5.39,10.4-5.23,3.86.15,7.4,2.2,9.53,5.37l1.12,1.66c1.28,1.89,4.1,1.89,5.38,0l5.31-7.88c2.97-4.4,8.21-6.26,13.35-4.74,5.14,1.53,8.47,5.93,8.47,11.21v19.96c0,5.23-3.46,9.91-8.57,11.38-5.11,1.47-10.3-.39-13.25-4.77l-5.31-7.88c-1.28-1.89-4.1-1.89-5.38,0l-1.21,1.79c-2.3,3.41-6.22,5.39-10.4,5.23-3.86-.15-7.4-2.2-9.53-5.37l-1.12-1.66c-1.28-1.89-4.1-1.89-5.38,0l-5.31,7.88c-2.28,3.38-5.9,5.27-9.79,5.27ZM61.77,20.04c-.72,1.06-.72,2.45,0,3.51l8.04,11.93c2.02,3,5.19,3.34,7.49,2.66,2.3-.68,4.75-2.69,4.75-6.29V11.74c0-3.6-2.45-5.61-4.75-6.29-2.3-.68-5.47-.34-7.49,2.66l-8.04,11.93ZM12.01,5.15c-.72,0-1.41.11-2.04.3-2.3.68-4.75,2.69-4.75,6.29v20.11c0,3.6,2.45,5.61,4.75,6.29,2.3.68,5.47.34,7.49-2.66l8.04-11.93c.72-1.06.72-2.45,0-3.51l-8.04-11.93c-1.47-2.18-3.54-2.95-5.45-2.95ZM34.14,23.55l3.87,5.74c1.28,1.89,3.43,3.07,5.74,3.04,2.23-.03,4.21-1.1,5.45-2.94l3.94-5.84c.72-1.06.72-2.45,0-3.51l-3.87-5.74c-1.28-1.89-3.43-3.07-5.74-3.04-2.23.03-4.21,1.1-5.45,2.94l-3.94,5.84c-.72,1.06-.72,2.45,0,3.51Z"/>
    <g>
      <g>
        <path class="cls-1" d="M101.82,34.54V9.83h6.88l6.42,17.55h.1l6.35-17.55h6.91v24.71h-4.36V14.68h-.07l-7.5,19.86h-3.07l-7.4-19.86h-.07v19.86h-4.19Z"/>
        <path class="cls-1" d="M133.93,34.54V9.83h16.37v3.84h-11.97v6.28h11.34v3.7h-11.34v6.98h12.6v3.91h-17ZM140.04,7.87l3.45-5.03h4.78l-4.96,5.03h-3.28Z"/>
        <path class="cls-1" d="M160.21,34.54V13.67h-7.57v-3.84h19.54v3.84h-7.57v20.87h-4.4Z"/>
        <path class="cls-1" d="M172.81,22.11c0-7.92,5.62-12.91,13.23-12.91s13.33,4.99,13.33,12.91-5.62,13.05-13.33,13.05-13.23-5.34-13.23-13.05ZM194.59,22.11c0-5.1-3.39-9.04-8.52-9.04s-8.48,3.94-8.48,9.04,3.45,9.11,8.48,9.11,8.52-3.84,8.52-9.11Z"/>
        <path class="cls-1" d="M203.63,34.54V9.83h8.76c6.46,0,13.65,3.07,13.65,12.35,0,8.65-7.19,12.35-13.65,12.35h-8.76ZM208.03,30.7h3.66c4.54,0,9.63-1.85,9.63-8.52,0-7.08-5.09-8.58-9.63-8.58h-3.66v17.1Z"/>
        <path class="cls-1" d="M229.11,22.11c0-7.92,5.62-12.91,13.23-12.91s13.33,4.99,13.33,12.91-5.62,13.05-13.33,13.05-13.23-5.34-13.23-13.05ZM250.89,22.11c0-5.1-3.39-9.04-8.52-9.04s-8.48,3.94-8.48,9.04,3.45,9.11,8.48,9.11,8.52-3.84,8.52-9.11Z"/>
        <path class="cls-1" d="M268.66,34.54V9.83h6.87l6.42,17.55h.11l6.35-17.55h6.91v24.71h-4.36V14.68h-.07l-7.5,19.86h-3.07l-7.4-19.86h-.07v19.86h-4.19Z"/>
        <path class="cls-1" d="M312.32,9.83l10.64,24.71h-5.03l-2.3-5.65h-10.71l-2.23,5.65h-4.92l10.75-24.71h3.8ZM306.42,25.11h7.68l-3.8-10.05-3.87,10.05Z"/>
      </g>
      <path class="cls-1" d="M334.15,40.73V5.62h3.56v35.11h-3.56Z"/>
      <g>
        <path class="cls-1" d="M349.98,34.54V9.83h6.87l6.42,17.55h.11l6.35-17.55h6.91v24.71h-4.36V14.68h-.07l-7.5,19.86h-3.07l-7.4-19.86h-.07v19.86h-4.19Z"/>
        <path class="cls-1" d="M382.1,34.54V9.83h16.37v3.84h-11.97v6.28h11.34v3.7h-11.34v6.98h12.6v3.91h-16.99Z"/>
        <path class="cls-1" d="M403.39,34.54V9.83h5.83l11.48,18.5h.07V9.83h4.4v24.71h-5.58l-11.73-19.09h-.07v19.09h-4.4Z"/>
        <path class="cls-1" d="M435.6,34.54V13.67h-7.57v-3.84h19.54v3.84h-7.57v20.87h-4.4Z"/>
        <path class="cls-1" d="M450.44,34.54V9.83h16.37v3.84h-11.97v6.28h11.34v3.7h-11.34v6.98h12.6v3.91h-17Z"/>
        <path class="cls-1" d="M491.38,9.83l10.64,24.71h-5.03l-2.3-5.65h-10.71l-2.23,5.65h-4.92l10.75-24.71h3.8ZM485.48,25.11h7.68l-3.8-10.05-3.87,10.05Z"/>
        <path class="cls-1" d="M507.36,34.54V13.67h-7.57v-3.84h19.54v3.84h-7.57v20.87h-4.4Z"/>
        <path class="cls-1" d="M522.2,34.54V9.83h4.4v24.71h-4.4Z"/>
        <path class="cls-1" d="M538.74,34.54l-9.77-24.71h4.92l6.8,19.02h.14l6.88-19.02h4.75l-9.91,24.71h-3.8Z"/>
        <path class="cls-1" d="M565.34,9.83l10.64,24.71h-5.03l-2.3-5.65h-10.71l-2.23,5.65h-4.92l10.75-24.71h3.8ZM559.44,25.11h7.68l-3.8-10.05-3.87,10.05Z"/>
      </g>
    </g>
  </g>
</svg>