<?xml version="1.0" encoding="UTF-8"?>
<svg id="Camada_2" data-name="Camada 2" xmlns="http://www.w3.org/2000/svg" viewBox="0 0 454.33 34.02">
  <defs>
    <style>
      .cls-1 {
        fill: #795e49;
      }
    </style>
  </defs>
  <g id="Camada_1-2" data-name="Camada 1">
    <path class="cls-1" d="M9.39,34.02c-.9,0-1.83-.13-2.75-.4C2.68,32.46,0,28.82,0,24.75v-15.48C0,5.19,2.7,1.53,6.69.39c3.99-1.15,8.04.31,10.34,3.72l4.15,6.15c1,1.48,3.2,1.48,4.2,0l.94-1.4c1.79-2.66,4.85-4.21,8.12-4.08,3.02.12,5.77,1.71,7.44,4.19l.87,1.29c1,1.48,3.2,1.48,4.2,0l4.15-6.15c2.32-3.44,6.41-4.89,10.42-3.7,4.02,1.19,6.61,4.63,6.61,8.75v15.59c0,4.09-2.7,7.74-6.69,8.89-3.99,1.15-8.04-.31-10.35-3.72l-4.15-6.15c-1-1.48-3.2-1.48-4.2,0l-.94,1.4c-1.79,2.66-4.85,4.21-8.12,4.08-3.02-.12-5.77-1.71-7.44-4.19l-.87-1.29c-1-1.48-3.2-1.48-4.2,0l-4.15,6.15c-1.78,2.64-4.61,4.11-7.64,4.11ZM48.23,15.64c-.56.83-.56,1.91,0,2.74l6.28,9.31c1.58,2.34,4.05,2.61,5.85,2.08,1.79-.53,3.71-2.1,3.71-4.91v-15.7c0-2.81-1.91-4.38-3.71-4.91-1.79-.53-4.27-.27-5.85,2.08l-6.28,9.31ZM9.38,4.02c-.56,0-1.1.09-1.59.23-1.79.53-3.71,2.1-3.71,4.91v15.7c0,2.81,1.91,4.38,3.71,4.91,1.79.53,4.27.27,5.85-2.08l6.28-9.31c.56-.83.56-1.91,0-2.74l-6.28-9.31c-1.15-1.7-2.77-2.31-4.26-2.31ZM26.65,18.38l3.02,4.48c1,1.48,2.68,2.4,4.48,2.37,1.74-.03,3.29-.86,4.26-2.29l3.07-4.56c.56-.83.56-1.91,0-2.74l-3.02-4.48c-1-1.48-2.68-2.4-4.48-2.37s-3.29.86-4.26,2.29l-3.07,4.56c-.56.83-.56,1.91,0,2.74Z"/>
    <g>
      <g>
        <path class="cls-1" d="M79.49,27.09V7.56h5.44l5.08,13.88h.08l5.02-13.88h5.46v19.53h-3.45v-15.7h-.05l-5.93,15.7h-2.43l-5.85-15.7h-.06v15.7h-3.31Z"/>
        <path class="cls-1" d="M104.88,27.09V7.56h12.94v3.03h-9.46v4.97h8.97v2.92h-8.97v5.52h9.96v3.09h-13.44ZM109.71,6.01l2.73-3.97h3.78l-3.92,3.97h-2.59Z"/>
        <path class="cls-1" d="M125.65,27.09V10.59h-5.99v-3.03h15.45v3.03h-5.99v16.5h-3.48Z"/>
        <path class="cls-1" d="M135.61,17.27c0-6.26,4.44-10.21,10.46-10.21s10.54,3.94,10.54,10.21-4.44,10.32-10.54,10.32-10.46-4.22-10.46-10.32ZM152.83,17.27c0-4.03-2.68-7.15-6.73-7.15s-6.7,3.12-6.7,7.15,2.73,7.2,6.7,7.2,6.73-3.03,6.73-7.2Z"/>
        <path class="cls-1" d="M159.98,27.09V7.56h6.92c5.1,0,10.79,2.43,10.79,9.77,0,6.84-5.68,9.77-10.79,9.77h-6.92ZM163.46,24.05h2.9c3.59,0,7.61-1.46,7.61-6.73,0-5.6-4.03-6.79-7.61-6.79h-2.9v13.52Z"/>
        <path class="cls-1" d="M180.12,17.27c0-6.26,4.44-10.21,10.46-10.21s10.54,3.94,10.54,10.21-4.44,10.32-10.54,10.32-10.46-4.22-10.46-10.32ZM197.34,17.27c0-4.03-2.68-7.15-6.73-7.15s-6.7,3.12-6.7,7.15,2.73,7.2,6.7,7.2,6.73-3.03,6.73-7.2Z"/>
        <path class="cls-1" d="M211.38,27.09V7.56h5.43l5.08,13.88h.08l5.02-13.88h5.46v19.53h-3.45v-15.7h-.06l-5.93,15.7h-2.43l-5.85-15.7h-.06v15.7h-3.31Z"/>
        <path class="cls-1" d="M245.9,7.56l8.41,19.53h-3.97l-1.82-4.47h-8.47l-1.77,4.47h-3.89l8.5-19.53h3.01ZM241.24,19.64h6.07l-3.01-7.95-3.06,7.95Z"/>
      </g>
      <path class="cls-1" d="M263.15,31.99V4.23h2.81v27.75h-2.81Z"/>
      <g>
        <path class="cls-1" d="M275.67,27.09V7.56h5.43l5.08,13.88h.08l5.02-13.88h5.46v19.53h-3.45v-15.7h-.06l-5.93,15.7h-2.43l-5.85-15.7h-.06v15.7h-3.31Z"/>
        <path class="cls-1" d="M301.06,27.09V7.56h12.94v3.03h-9.46v4.97h8.97v2.92h-8.97v5.52h9.96v3.09h-13.44Z"/>
        <path class="cls-1" d="M317.89,27.09V7.56h4.61l9.08,14.62h.06V7.56h3.48v19.53h-4.41l-9.27-15.09h-.06v15.09h-3.48Z"/>
        <path class="cls-1" d="M343.36,27.09V10.59h-5.99v-3.03h15.45v3.03h-5.99v16.5h-3.48Z"/>
        <path class="cls-1" d="M355.09,27.09V7.56h12.94v3.03h-9.46v4.97h8.97v2.92h-8.97v5.52h9.96v3.09h-13.44Z"/>
        <path class="cls-1" d="M387.45,7.56l8.41,19.53h-3.97l-1.82-4.47h-8.47l-1.77,4.47h-3.89l8.5-19.53h3.01ZM382.79,19.64h6.07l-3.01-7.95-3.06,7.95Z"/>
        <path class="cls-1" d="M400.09,27.09V10.59h-5.99v-3.03h15.45v3.03h-5.99v16.5h-3.48Z"/>
        <path class="cls-1" d="M411.82,27.09V7.56h3.48v19.53h-3.48Z"/>
        <path class="cls-1" d="M424.89,27.09l-7.72-19.53h3.89l5.38,15.04h.11l5.44-15.04h3.75l-7.83,19.53h-3.01Z"/>
        <path class="cls-1" d="M445.92,7.56l8.41,19.53h-3.97l-1.82-4.47h-8.47l-1.77,4.47h-3.89l8.5-19.53h3.01ZM441.26,19.64h6.07l-3.01-7.95-3.06,7.95Z"/>
      </g>
    </g>
  </g>
</svg>