<svg width="1919" height="633" viewBox="0 0 1919 633" fill="none" xmlns="http://www.w3.org/2000/svg">
<g clip-path="url(#clip0_77_20)">
<path d="M252.78 517.96L261.31 530.61C264.12 534.79 268.88 537.38 273.97 537.3C278.89 537.22 283.26 534.87 285.99 530.83L294.67 517.96C296.25 515.62 296.25 512.57 294.67 510.22L286.14 497.57C283.33 493.39 278.57 490.8 273.48 490.88C268.56 490.96 264.19 493.31 261.46 497.35L252.78 510.22C251.2 512.56 251.2 515.61 252.78 517.96Z" fill="#795E49"/>
<path d="M1624.72 517.96L1633.25 530.61C1636.06 534.79 1640.82 537.38 1645.91 537.3C1650.83 537.22 1655.2 534.87 1657.93 530.83L1666.61 517.96C1668.19 515.62 1668.19 512.57 1666.61 510.22L1658.08 497.57C1655.27 493.39 1650.51 490.8 1645.42 490.88C1640.5 490.96 1636.13 493.31 1633.4 497.35L1624.72 510.22C1623.14 512.56 1623.14 515.61 1624.72 517.96Z" fill="#795E49"/>
<path d="M1242.62 197.33L1251.15 209.98C1253.96 214.16 1258.72 216.75 1263.81 216.67C1268.73 216.59 1273.1 214.24 1275.83 210.2L1284.51 197.33C1286.09 194.99 1286.09 191.94 1284.51 189.59L1275.98 176.94C1273.17 172.76 1268.41 170.17 1263.32 170.25C1258.4 170.33 1254.03 172.68 1251.3 176.72L1242.62 189.59C1241.04 191.93 1241.04 194.98 1242.62 197.33Z" fill="#795E49"/>
<path d="M1935.87 0.109985V252.24C1935.87 369.35 1858.47 473.96 1744.25 506.86C1629.93 539.79 1513.76 498.08 1447.78 400.18L1328.93 223.85C1300.38 181.49 1237.16 181.49 1208.61 223.85L1181.56 263.98C1130.14 340.27 1042.52 384.59 949 380.95C862.57 377.58 783.55 331.83 735.74 260.89L710.77 223.85C682.22 181.49 619 181.49 590.45 223.85L471.6 400.19C420.59 475.87 339.59 517.98 252.64 517.98C226.72 517.98 200.28 514.24 173.93 506.53C60.3 473.26 -16.5 368.92 -16.5 252.27V13.61" stroke="#795E49" stroke-width="3" stroke-miterlimit="10"/>
<path d="M629.69 197.33L638.22 209.98C641.03 214.16 645.79 216.75 650.88 216.67C655.8 216.59 660.17 214.24 662.9 210.2L671.58 197.33C673.16 194.99 673.16 191.94 671.58 189.59L663.05 176.94C660.24 172.76 655.48 170.17 650.39 170.25C645.47 170.33 641.1 172.68 638.37 176.72L629.69 189.59C628.11 191.93 628.11 194.98 629.69 197.33Z" fill="#795E49"/>
<path d="M938.75 384.65L947.28 397.3C950.09 401.48 954.85 404.07 959.94 403.99C964.86 403.91 969.23 401.56 971.96 397.52L980.64 384.65C982.22 382.31 982.22 379.26 980.64 376.91L972.11 364.26C969.3 360.08 964.54 357.49 959.45 357.57C954.53 357.65 950.16 360 947.43 364.04L938.75 376.91C937.17 379.25 937.17 382.3 938.75 384.65Z" fill="#795E49"/>
</g>
<defs>
<clipPath id="clip0_77_20">
<rect width="1919" height="633" fill="white"/>
</clipPath>
</defs>
</svg>
