<?xml version="1.0" encoding="UTF-8"?>
<svg id="Camada_2" data-name="Camada 2" xmlns="http://www.w3.org/2000/svg" viewBox="0 0 51.64 39.33">
  <defs>
    <style>
      .cls-1 {
        fill: #795e49;
      }
    </style>
  </defs>
  <g id="Camada_1-2" data-name="Camada 1">
    <g>
      <path class="cls-1" d="M0,7.68c.17-1.04,3.21-1.89,3.21-1.03v23.87c0,1.01,1.74,2.84,2.67,3.3,1.53.75,2.39.31,3.87.49,4.24.52,8.68,1.48,11.82,4.59-4.72-.92-9.53-.99-14.31-.43-1.47.17-5.41,1.32-6.47.68-.28-.17-.48-.72-.79-.94V7.68Z"/>
      <path class="cls-1" d="M51.64,7.68v30.52c-.3.22-.5.76-.79.94-1.06.64-5-.5-6.47-.68-3.14-.37-6.94-.53-10.07-.26-1.4.12-2.85.53-4.25.68,3.14-3.1,7.58-4.07,11.82-4.59,1.48-.18,2.34.26,3.87-.49.93-.46,2.67-2.29,2.67-3.3V6.64c0-.86,3.05-.01,3.21,1.03Z"/>
      <path class="cls-1" d="M24.33,37.28c-4.71-4.47-10.88-5.82-17.23-6.07-.7-.26-.94-.91-.91-1.61.63-8.95-.8-18.96,0-27.79.09-.94.24-1.53,1.29-1.7,4.06-.63,10.48,1.4,13.64,4,.64.53,3.21,3.23,3.21,3.9v29.26Z"/>
      <path class="cls-1" d="M27.31,37.28V8.02c0-.67,2.57-3.38,3.21-3.9C33.68,1.52,40.1-.52,44.16.12c1.05.16,1.2.76,1.29,1.7.8,8.83-.63,18.84,0,27.79.02.7-.21,1.35-.91,1.61-6.34.24-12.52,1.6-17.23,6.07Z"/>
    </g>
  </g>
</svg>