<?xml version="1.0" encoding="UTF-8"?>
<svg id="Camada_2" data-name="Camada 2" xmlns="http://www.w3.org/2000/svg" viewBox="0 0 54.55 43.7">
  <defs>
    <style>
      .cls-1 {
        fill: #795e49;
      }
    </style>
  </defs>
  <g id="Camada_1-2" data-name="Camada 1">
    <path class="cls-1" d="M10.78,29.15C1.42,28.1-3.85,18.28,3.37,11.02c.41-.41,2.73-2.24,3.21-2.03,1.32.58,1.68,2.71,1.38,4.01-.46,1.98-3.13,1.76-2.84,3.68,4.47-.13,5.95-6.16,2.4-8.84C9.57,3.35,15.04,1.22,19.77,1.61c.74.06,2.12.67,2.57.6.24-.04.31-.64.66-.85,3.46-2.13,9.44-1.53,12.95.26,1.71.87,3.45.51,5.59,1.14,3.64,1.07,10.36,6.09,8.99,10.47-.28.89-1.83,1.57-1.61,2.44.41,1.6,2.8-1.33,3.04-1.87,4.64,4.69,2.81,14.06-3.62,16.23.53-3.48-2.79-6.35-6.17-5.73-1.09.2-1.55.46-1.37,1.67,2.97-.86,6.11.12,6.11,3.63,0,3.71-4.34,3.9-4.95,5-.97,1.75,1.24,5.93,1.08,7.43-.23,2.1-4.97,1.94-6.17,1.07-.71-.51-3.69-5.78-4.76-7.05-.51-.6-1.73-1.87-2.32-2.4-2.45-2.16-3.82-.62-6.75-1.08-4.01-.63-7.91-5.39-3.68-8.18,1.91-1.26,2.91-.23,3.86-.47,1.7-.43-.36-1.9-2.25-1.7-3.2.34-5.54,3.94-4.53,6.94-1.81-.15-3.88.2-5.65,0ZM30.64,3.63c-3.27-.14-.08,4.68,1.23,5.6,1.84,1.29,5.44,1.3,4.51,4.35-.16.52-.99.88-1.02,1.21-.14,1.45,2.23.58,2.51-1.17.15-.96.11-2.13-.56-2.89,1.12-.49,4.45-2.22,4.04-3.74-.45-1.66-2.18,1.14-2.58,1.43-3.22,2.33-8.63-.73-8.13-4.8ZM19.77,4.51c-.68.2-.02,2.61-.22,3.56-.49,2.4-2.92,2.72-4.98,2.51-.54-.05-1.47-.6-1.74-.55-1.36.29.05,1.8,1.46,1.99,3.25.46,6.55-.84,6.81-4.46.05-.76-.02-3.44-1.32-3.05ZM20.78,17.26c3.49.38,7.92-2.06,8.28-5.81l-1.3-.25c-.55,3.11-3.79,4.64-6.71,4.74l-.27,1.32ZM44.27,14.66c-1.16-.19-1.51.3-1.67,1.38-.5,3.24,2.75,5.38,5.75,4.57.76-1.84-1.04-1.16-2.12-1.38-3.47-.72-1.73-4.36-1.95-4.57ZM10.05,25.1c-.28-2.86.09-5.53,3.41-6.03.61-.09,3.64.64,2.55-.95-.69-1.01-3.59-.35-4.58.09-2.46,1.1-3.48,4.38-2.5,6.84l1.12.04ZM34.12,25.96c1.5-2.87.25-8.12-3.48-8.11-.32,1.47.89,1.53,1.61,2.3,2.73,2.95-.07,8.71-4.16,8.48l-.04,1.38c2.26.8,4.8-2.59,6.21-2.61,2.14-.04,2.88,3.4,3.77,3.21,1.95-.42-2.13-5.46-3.91-4.64Z"/>
  </g>
</svg>