<?xml version="1.0" encoding="UTF-8"?>
<svg id="Camada_2" data-name="Camada 2" xmlns="http://www.w3.org/2000/svg" viewBox="0 0 62.68 62.7">
  <defs>
    <style>
      .cls-1 {
        fill: #df975e;
      }
    </style>
  </defs>
  <g id="Camada_1-2" data-name="Camada 1">
    <g>
      <path class="cls-1" d="M33.31,0l3.21.4c25.86,4.46,35.43,36.9,15.45,54.56C33.33,71.43,3.49,60.04.29,35.54c-.1-.74-.07-1.54-.26-2.25.06-1.3-.08-2.63,0-3.92C.93,13.83,13.85.91,29.39,0h3.92ZM50.88,44.39c.11-.11.19-.28.25-.42l.04-24.58c-.07-1.1-1.16-1.54-2.14-1.53H13.42c-.88.01-1.86.57-1.9,1.53l.08,24.67c.16.36.46.54.83.64,12.62.15,25.33.21,37.94-.03.18-.07.38-.15.52-.28Z"/>
      <path class="cls-1" d="M46.89,20.44l-14.13,14.21c-.33.19-2.49.19-2.83,0l-14.13-14.21h31.08Z"/>
      <path class="cls-1" d="M46.03,42.23h-29.37l8.63-8.69c.24,0,2.85,3.03,3.43,3.43.42.29.72.33,1.22.37.81.06,3.19.1,3.82-.23l3.65-3.57,8.63,8.69Z"/>
      <polygon class="cls-1" points="13.97 41.37 13.97 22.28 23.51 31.87 13.97 41.37"/>
      <polygon class="cls-1" points="48.72 41.37 39.19 31.87 48.72 22.28 48.72 41.37"/>
    </g>
  </g>
</svg>