<?xml version="1.0" encoding="UTF-8"?>
<svg id="Camada_2" data-name="Camada 2" xmlns="http://www.w3.org/2000/svg" viewBox="0 0 61.05 36.42">
  <defs>
    <style>
      .cls-1 {
        fill: #795e49;
      }
    </style>
  </defs>
  <g id="Camada_1-2" data-name="Camada 1">
    <g>
      <path class="cls-1" d="M49.81,24.87c-2,1.99-8.9-2.22-11.43-2.22-.09.7-.04.87.53,1.28,2.2,1.55,9.98,1.66,7.86,5.96-.82,1.67-4.86.64-5.94-.32-.55-.49-.66-1.62-1.24-2.21-1.08-1.1-3.24-1.49-4.49-.44-.09-3.7-3.64-4.02-5.92-1.64-.9-3.32-4.61-3.4-6.42-.66-1.73-1.99-3.51-2.54-5.6-.67-.74.28-1.71,3.2-2.28,2.97-1.57-.63-2.78-2.96-3.8-4.1-2.87-3.22-7.17-3.59-11.03-5.08C-.3,12.33,1.09,6.89,3.23,1.96c.34-.12.65.02.97.12,1.51.49,7.98,3.26,9.11,4.05.91.64,1.34,1.7,2.23,2.37,1.75,1.31,4.74,1.41,6.82.91,3.66-.89,3.08-2.47,7.74-1.33,4.56,1.12,14.42,4.41,18.56,6.43,1.38.67,3.5,2.47,2.72,4.17-.12.26-1.11,1.2-1.39,1.28-1.24.33-6.58-2.19-8.16-2.58-.43-.05-.9.41-.8.82.19.81,7.01,2.49,8.2,3.31,1.06.72,1.49,2.47.6,3.36Z"/>
      <path class="cls-1" d="M61.05,16.07l-8,1.3c-.81-.97-.77-1.85-1.85-2.78-2.12-1.83-16.12-6.43-19.57-7.39-1.19-.33-3.11-1.02-4.27-.99-2.03.04-3.59,1.61-5.35,1.9-2.71.46-7.24.39-7.01-3.32.11-.48,4.1-.89,5.03-1.29,1.68-.71,2.45-2.44,4.04-3.19,2.83.56,6.85-.14,9.45.39,2.03.42,4.29,3.66,5.33,3.73L56.24,0c3.45,4.53,4.43,10.5,4.81,16.07Z"/>
      <path class="cls-1" d="M26.12,32.74c-1.4,1.17-4.51-.57-4.52-2.36,0-1.47,2.58-6.38,4.14-6.4,4.04-.06,2.2,7.25.38,8.77Z"/>
      <path class="cls-1" d="M33.36,25.35c1.3,3.37-.79,13.02-5.86,8.65l-.26-.61c2.58-2.49,1.24-9.16,6.12-8.04Z"/>
      <path class="cls-1" d="M36.65,27.63c4.52-.82,2.2,7.79.41,8.67-.96.47-4-.47-3.89-1.59,1.27-1.54,1.46-6.72,3.48-7.08Z"/>
      <path class="cls-1" d="M20.29,30.53c-1.26.16-3.8-.54-4.11-1.93.18-1.96,2.18-5.18,4.44-4.14,2.73,1.26-.73,4.1-.33,6.07Z"/>
      <path class="cls-1" d="M39.36,35.8l1.47-4.93c3.73,1.41,2.23,5.46-1.47,4.93Z"/>
    </g>
  </g>
</svg>