<?xml version="1.0" encoding="UTF-8"?>
<svg id="Camada_2" data-name="Camada 2" xmlns="http://www.w3.org/2000/svg" viewBox="0 0 62.68 59.36">
  <defs>
    <style>
      .cls-1 {
        fill: #df975e;
        fill-rule: evenodd;
      }
    </style>
  </defs>
  <g id="Camada_1-2" data-name="Camada 1">
    <g>
      <path class="cls-1" d="M31.27,24.63c-2.94,0-5.33,2.27-5.33,5.05s2.39,5.05,5.33,5.05,5.33-2.27,5.33-5.05-2.39-5.05-5.33-5.05Z"/>
      <path class="cls-1" d="M45.51,20.82c-.38-1.41-1.1-2.53-2.15-3.34-1.14-.88-2.55-1.38-4.17-1.47-2.49-.14-5.1-.21-7.84-.2-2.83,0-5.37.06-7.85.2-1.63.09-3.03.59-4.17,1.47-1.05.81-1.77,1.93-2.15,3.34-.4,1.47-.42,3.08-.44,4.63-.02,1.41-.04,2.82-.04,4.23,0,1.4.02,2.81.04,4.22.02,1.56.04,3.16.44,4.63.38,1.41,1.1,2.53,2.15,3.34,1.14.88,2.55,1.38,4.17,1.47,2.5.14,5.1.21,7.84.2,2.79,0,5.36-.06,7.85-.2,1.63-.09,3.03-.59,4.17-1.47,1.05-.81,1.77-1.93,2.15-3.34.39-1.46.41-3,.44-4.63.02-1.41.04-2.82.04-4.23,0-1.41-.02-2.82-.04-4.23-.03-1.63-.05-3.17-.44-4.63ZM31.27,38.78c-5.3,0-9.61-4.08-9.61-9.1s4.31-9.1,9.61-9.1,9.61,4.08,9.61,9.1-4.31,9.1-9.61,9.1ZM41.15,22.61c-1.18,0-2.13-.9-2.13-2.02s.96-2.02,2.13-2.02,2.13.9,2.13,2.02-.96,2.02-2.13,2.02Z"/>
      <path class="cls-1" d="M31.34,0C14.03,0,0,13.29,0,29.68s14.03,29.68,31.34,29.68,31.34-13.29,31.34-29.68S48.65,0,31.34,0ZM50.26,29.69c0,1.43-.02,2.85-.04,4.27-.03,1.8-.05,3.66-.57,5.58-.61,2.27-1.82,4.11-3.59,5.48-1.83,1.41-4.12,2.23-6.62,2.38-2.47.14-5.01.21-7.74.21-.24,0-.48,0-.73,0-2.73,0-5.26-.07-7.74-.21-2.5-.14-4.79-.97-6.62-2.38-1.77-1.37-2.98-3.21-3.59-5.48-.52-1.94-.55-3.87-.57-5.58-.02-1.42-.04-2.85-.04-4.27,0-1.44.02-2.86.04-4.29.02-1.7.05-3.64.57-5.58.61-2.27,1.82-4.11,3.59-5.48,1.83-1.41,4.11-2.23,6.62-2.38,2.58-.15,5.22-.21,8.11-.21,2.9,0,5.52.06,8.1.21,2.5.14,4.79.97,6.62,2.38,1.77,1.37,2.98,3.21,3.59,5.48.52,1.92.55,3.78.57,5.57.02,1.43.04,2.85.04,4.28h0Z"/>
    </g>
  </g>
</svg>