<?xml version="1.0" encoding="UTF-8"?>
<svg id="Camada_2" data-name="Camada 2" xmlns="http://www.w3.org/2000/svg" viewBox="0 0 62.68 59.36">
  <defs>
    <style>
      .cls-1 {
        fill: #df975e;
        fill-rule: evenodd;
      }
    </style>
  </defs>
  <g id="Camada_1-2" data-name="Camada 1">
    <path class="cls-1" d="M31.34,0C14.03,0,0,13.29,0,29.68s14.03,29.68,31.34,29.68,31.34-13.29,31.34-29.68S48.65,0,31.34,0ZM21.03,45.58h-5.89v-22.32h5.89v22.32ZM18.08,19.36c-1.63,0-2.95-1.25-2.95-2.79s1.32-2.79,2.95-2.79,2.95,1.25,2.95,2.79-1.32,2.79-2.95,2.79ZM47.54,45.58h-5.89v-12.55c0-2.31-1.98-4.18-4.42-4.18s-4.42,1.87-4.42,4.18v12.55h-5.89v-22.32h5.89v2.79l.69-.65c3.45-3.27,10.62-3.05,13.23,1.9.54,1.01.81,2.13.81,3.27v15.01Z"/>
  </g>
</svg>